<svg xmlns="http://www.w3.org/2000/svg" viewBox="0 0 616.65 613.69"><path d="M1259.52,497c0,31.42-5.17,61.95-14.5,91.88a317,317,0,0,1-23.32,55.66,276.13,276.13,0,0,1-33.44,49.6,381.34,381.34,0,0,1-27.61,29.5,293.55,293.55,0,0,1-47.84,36.7,305.53,305.53,0,0,1-68.39,31.36c-17.33,5.46-35,9.68-53.11,11.43-9.75.94-19.63.83-29.31,2.18-10.06,1.4-20,.07-29.87-.45a290.23,290.23,0,0,1-62.87-10.5,305.3,305.3,0,0,1-64.57-26.52,275.14,275.14,0,0,1-43.82-29.59,401.76,401.76,0,0,1-31-28.12,304.06,304.06,0,0,1-49.12-66.43,316.37,316.37,0,0,1-24.27-56.88,273.56,273.56,0,0,1-11.55-55.11c-.71-7.11-1.27-14.23-2-21.34-.29-3.05.83-5,3.71-6.26,7.62-3.32,15.18-6.77,22.72-10.27.9-.42,1.53-1.46,2.28-2.21a16,16,0,0,0-2.2-1.68c-7.93-4.21-15.84-8.44-23.84-12.53-2.88-1.47-2.85-3.92-2.55-6.41,1.05-8.58,2-17.18,3.4-25.7a283.64,283.64,0,0,1,22.22-72.37c10.15-22.17,22.52-43.09,37.93-62.08,6.8-8.39,13.52-16.91,21-24.67s15.89-15.17,24.23-22.3A283.58,283.58,0,0,1,792.49,235c23.93-14.11,49.11-25.49,76.17-32.08,14.52-3.54,29.29-6.1,44-8.71,5.7-1,11.6-.8,17.39-1.38,3.77-.38,5.79,1.22,7.24,4.57,3.25,7.48,6.76,14.85,10.17,22.26a10.36,10.36,0,0,0,1.07,2.25,33.85,33.85,0,0,0,2.65,2.71c.92-1,2.15-1.92,2.69-3.13,3.73-8.36,7.28-16.8,11-25.18,1.9-4.31,2.5-4.41,7.32-3.84,5.27.63,10.59.92,15.88,1.42a293,293,0,0,1,110.53,33.85A301.77,301.77,0,0,1,1147,260.27a317.57,317.57,0,0,1,28.76,27c16,16.68,29.2,35.4,41,55.16,18.89,31.5,31.15,65.48,37.86,101.49,1.74,9.29,2.56,18.76,3.42,28.19C1258.84,480.35,1259.06,488.68,1259.52,497Zm-55.54-.33c.67-15.6-1.69-33-5.21-50.37a268.06,268.06,0,0,0-15.71-50c-1.92-4.6-2.69-4.7-6.29-1.41-1,.89-1.89,1.87-2.86,2.79q-11.57,11-23.15,22c-1,1-2.2,2.79-3.66,1.32-.77-.77-.74-2.76-.45-4.06a19.65,19.65,0,0,1,2.11-4.51c2.7-5.17,5.49-10.28,8.13-15.48,5.56-11,11-22,16.56-33.05,3.8-7.6,7.53-15.24,11.43-22.79,1.92-3.73,2-6.85-.69-10.5-11.51-15.53-23.61-30.46-38.19-43.35a321.24,321.24,0,0,0-29.66-23.59c-9.13-6.31-7-6-16.5-.18q-13.81,8.54-27.42,17.39c-2.25,1.46-4.07,1.42-6.43.22-6.38-3.25-12.85-6.32-19.36-9.29-27-12.33-55.59-18.16-85.09-19.67a236.1,236.1,0,0,0-39.84,1.68,233.58,233.58,0,0,0-50.08,11.19c-8.48,3-16.79,6.42-25.1,9.84-2.25.93-4,1-6-.5-2.82-2.06-5.83-3.87-8.71-5.85a4.07,4.07,0,0,0-5-.09c-3.53,2.2-7.26,4.06-10.87,6.14a229.13,229.13,0,0,0-40.21,29.46c-16.6,15.16-31.62,31.91-46.19,49-1.57,1.84-2.65,3.75-2.14,6.35.83,4.24,1.31,8.56,2.27,12.76a19.13,19.13,0,0,1-1.86,13.7,244,244,0,0,0-25.57,95.3A226.05,226.05,0,0,0,704.42,531c2.81,17.77,6.92,35.26,13.45,52.12a265.71,265.71,0,0,0,18.69,39.16,243.36,243.36,0,0,0,29.07,39.86,9.22,9.22,0,0,1,2.5,8.59c-1.7,9-2.7,18.08-4.23,27.09-.84,4.87-2.1,9.68-3.38,14.46-.49,1.87.35,2.75,1.59,3.76,3.21,2.63,6.22,5.53,9.55,8,8.41,6.25,17,12.3,25.43,18.48,2.27,1.65,4.14,1.74,6.66.05,10.24-6.86,20.72-13.35,31-20.17,2.55-1.7,4.57-1.94,7.3-.51a259.45,259.45,0,0,0,41.17,16.65,218.13,218.13,0,0,0,55.32,10.14c13.42.71,27-.12,40.4-.75,16.56-.78,32.58-4.68,48.35-9.59,21.27-6.63,41-16.5,59.89-28.27,2.68-1.67,4.57-1.64,7.21-.05,9.56,5.73,19.35,11.09,28.89,16.86,2.71,1.64,4.45,1.68,7-.33a297.54,297.54,0,0,0,44.66-44.11c1.71-2.07,1.66-4,.7-6.41-4.21-10.69-8.13-21.49-12.26-32.21a8.89,8.89,0,0,1,.7-8.37c6.63-11.92,13.65-23.73,19-36.23C1196.82,567.25,1204.62,533.86,1204,496.65ZM951,232.05v0c-3.66,0-7.31,0-11,0a14.05,14.05,0,0,0-3,.16c-.55.12-1,.71-1.49,1.08.5.53.92,1.38,1.51,1.53a14.2,14.2,0,0,0,3.46.19H961a10.82,10.82,0,0,0,3-.14,9.73,9.73,0,0,0,2.33-1.48c-.77-.44-1.54-1.25-2.32-1.27C959.63,232,955.31,232.05,951,232.05ZM684.93,494h0c0-4.47.07-8.95-.07-13.42,0-.68-1-1.33-1.57-2-.4.65-1.15,1.3-1.16,2-.07,8.62-.08,17.24,0,25.86,0,.67,1,1.33,1.57,2,.4-.65,1.14-1.29,1.16-1.95C685,502.3,684.93,498.16,684.93,494Z" transform="translate(-642.87 -192.22)"/><path d="M957.61,652.11q-74.73,0-149.48,0a33.88,33.88,0,0,1-5.66-1,31.93,31.93,0,0,1,2.15-5.33q13.53-21.59,27.21-43.08,24.12-37.95,48.28-75.86,14.75-23.18,29.54-46.33c10.67-16.7,21.43-33.35,32-50.14a6.57,6.57,0,0,1,6.45-3.52q10.76.21,21.5,0a7.1,7.1,0,0,1,7,3.8q8.28,14,16.88,27.72c1.28,2,1.13,3.45-.12,5.4q-14.06,21.84-27.92,43.81-25.27,39.87-50.53,79.76c-2.67,4.22-5.43,8.39-8.06,12.64-1.45,2.33-1.18,2.79,1.52,3,.83.06,1.66,0,2.5,0q53,0,106,0a37.37,37.37,0,0,0,5.21-.75c-.79-1.59-1.46-3.26-2.4-4.77q-18.42-29.71-37-59.36c-1.36-2.18-1.18-3.83.16-5.91,4-6.31,7.86-12.76,11.84-19.11,4.33-6.91,8.69-13.81,13.14-20.65,2.59-4,3.39-4,5.82-.1q13.71,21.77,27.36,43.58c10.76,17.22,21.43,34.51,32.24,51.71,12.58,20,25.27,40,37.9,60,2.35,3.73,2,4.5-2.46,4.52-13.83.06-27.67,0-41.5,0H957.61Z" transform="translate(-642.87 -192.22)"/><path d="M958,345.92q81.22,0,162.46,0a42.11,42.11,0,0,1,5.76.77,45.64,45.64,0,0,1-2.46,5.19q-29.06,45.45-58.19,90.86-8.62,13.46-17.28,26.9c-.36.56-.69,1.14-1.09,1.67-2.12,2.9-2.7,2.92-4.52-.05-4.71-7.66-9.37-15.34-14.05-23-3.12-5.12-6-10.44-9.45-15.29-2.52-3.51-1.94-6.32.14-9.53,4.26-6.57,8.43-13.18,12.57-19.82,2-3.19,1.8-3.48-1.89-3.61-1.16,0-2.33,0-3.5,0q-99,0-198,.1c-5,0-7.91-1.62-10.44-5.79-8.65-14.23-17.63-28.25-26.48-42.36a2.63,2.63,0,0,1-.27-.41c-.63-1.48-1.26-2.95-1.88-4.43,1.68-.4,3.37-1.14,5.06-1.14q81.74-.09,163.46-.05Z" transform="translate(-642.87 -192.22)"/><path d="M730.55,358.46a21.16,21.16,0,0,1,2.38-3.83q18.84-20.55,37.81-41c2.58-2.79,5.22-5.51,8-8.13,1.41-1.34,3.17-2,4.86-.35a4.38,4.38,0,0,1,.69,5.88,9.3,9.3,0,0,1-1.27,1.53c-8.57,9.25-17.23,18.42-25.71,27.75-6.69,7.37-13.11,15-19.77,22.36-1.34,1.48-3.25,2.45-4.9,3.65-.58-1.83-1.19-3.67-1.74-5.51A19,19,0,0,1,730.55,358.46Z" transform="translate(-642.87 -192.22)"/><path d="M854.34,746.57c-3.35,9-5,13.55-8.36,22.58-3.2-1.18-4.79-1.8-8-3.07l3.82-9.52c-4.33-1.74-6.48-2.65-10.76-4.57-1.67,3.75-2.51,5.62-4.18,9.36-3-1.36-4.57-2.07-7.6-3.52,4.16-8.69,6.24-13,10.41-21.72A242.78,242.78,0,0,0,854.34,746.57Zm-19.13-4-2.74,6.12c4.19,1.88,6.3,2.78,10.54,4.49,1-2.49,1.5-3.74,2.51-6.23C841.37,745.28,839.31,744.4,835.21,742.57Z" transform="translate(-642.87 -192.22)" style="fill:#fff"/><path d="M876.51,775.08c.91,1.7,1.37,2.55,2.3,4.25A285.59,285.59,0,0,1,851.19,771l8-22.74A240.33,240.33,0,0,0,884.73,756c-1.52,1.08-2.28,1.62-3.82,2.68-6.46-1.69-9.68-2.63-16.06-4.7-.83,2.57-1.25,3.86-2.07,6.42,7.09,2.3,10.67,3.33,17.85,5.18-.35,1.37-.52,2.06-.88,3.43-7.27-1.86-10.88-2.91-18.06-5.23-.83,2.55-1.24,3.83-2.06,6.38C866.34,772.31,869.72,773.3,876.51,775.08Z" transform="translate(-642.87 -192.22)" style="fill:#fff"/><path d="M912.52,785.85c-3.57-.49-5.35-.76-8.9-1.35-4.46-6.75-6.56-10.16-10.47-17,4.82,1,7.25,1.49,12.1,2.31.38-2.27.57-3.4,1-5.67-5.19-.88-7.78-1.38-12.94-2.49l-4.33,20.08c-3-.65-4.54-1-7.56-1.73,2.25-9.36,3.39-14.05,5.65-23.41a240.78,240.78,0,0,0,26.62,5.13c-.74,5.08-1.1,7.63-1.84,12.71-3.09-.45-4.63-.69-7.71-1.22C907.31,778.28,909,780.82,912.52,785.85Z" transform="translate(-642.87 -192.22)" style="fill:#fff"/><path d="M923.65,787.17c-3.25-3-4.84-4.51-7.94-7.59.89-6.93,1.34-10.39,2.24-17.31a239,239,0,0,0,26.55,2.21c-.35,9.63-.53,14.44-.88,24.07C935.63,788.26,931.63,788,923.65,787.17Zm.9-20.55c-.51,4.91-.77,7.37-1.28,12.28,1.48,2,2.24,3,3.78,5,3.68.34,5.52.48,9.21.7.41-6.79.61-10.18,1-17C932.19,767.36,929.64,767.15,924.55,766.62Z" transform="translate(-642.87 -192.22)" style="fill:#fff"/><path d="M977.1,784.45c1.36,1.32,2,2,3.44,3.29a285,285,0,0,1-31.47,1,261.48,261.48,0,0,0,20.36-20.82c-6.79.33-10.18.39-17,.33-1.18-1.43-1.77-2.15-2.92-3.59a265.17,265.17,0,0,0,29-.88A238.59,238.59,0,0,1,961,785.17C967.46,785.05,970.68,784.9,977.1,784.45Z" transform="translate(-642.87 -192.22)" style="fill:#fff"/><path d="M1007.81,780.74c1.51,1.18,2.28,1.76,3.82,2.92-9.28,1.74-18.79,3-28.2,3.84-.87-9.6-1.31-14.4-2.18-24a244.42,244.42,0,0,0,26.11-3.55c-.92,1.6-1.39,2.41-2.34,4-6.52,1.12-9.79,1.59-16.36,2.34.31,2.68.46,4,.77,6.7,7.3-.83,10.93-1.36,18.17-2.65.25,1.4.38,2.1.62,3.49-7.32,1.3-11,1.84-18.38,2.68.3,2.67.46,4,.77,6.67C997.51,782.41,1001,781.92,1007.81,780.74Z" transform="translate(-642.87 -192.22)" style="fill:#fff"/><path d="M1040.14,777.07a230.8,230.8,0,0,1-21.61-8.14c1.1,5.12,1.66,7.68,2.77,12.81-3,.64-4.47.94-7.45,1.51-1.81-9.47-2.71-14.2-4.51-23.66a224.05,224.05,0,0,0,20.8,8.69c-1.29-5-1.94-7.56-3.22-12.6,2.68-.69,4-1,6.69-1.8C1036.22,763.16,1037.53,767.8,1040.14,777.07Z" transform="translate(-642.87 -192.22)" style="fill:#fff"/><path d="M1037.5,752.76c2.72-.8,4.07-1.22,6.77-2.09,3,9.17,4.45,13.75,7.41,22.92-2.92.94-4.39,1.4-7.33,2.27Z" transform="translate(-642.87 -192.22)" style="fill:#fff"/><path d="M1073.21,743.46c-2.76,1.21-4.15,1.8-6.94,2.94,3.12,7.61,4.68,11.41,7.79,19-3.12,1.28-4.68,1.89-7.82,3.08-2.92-7.68-4.37-11.53-7.28-19.21-3.23,1.22-4.86,1.81-8.12,2.93-1.61-.94-2.41-1.42-4-2.38A264.27,264.27,0,0,0,1074.55,739C1074,740.77,1073.76,741.67,1073.21,743.46Z" transform="translate(-642.87 -192.22)" style="fill:#fff"/><path d="M1100.75,725.5l12.11,20.82c-2.72,1.58-4.09,2.35-6.84,3.86l-5-9c-4.57,2.5-6.88,3.7-11.53,6,1.83,3.69,2.74,5.53,4.56,9.22-2.76,1.36-4.15,2-6.93,3.32-4.06-8.74-6.09-13.11-10.14-21.85,2.57-1.19,3.85-1.81,6.4-3.06,1.82,3.67,2.73,5.51,4.54,9.19,4.6-2.27,6.88-3.45,11.39-5.93l-4.93-9C1097,727.67,1098.24,727,1100.75,725.5Z" transform="translate(-642.87 -192.22)" style="fill:#fff"/><path d="M1192.76,618.22c1.58.64,1.73.51,1.94.4s.84-.38.84-.38l3.28,1.7s.13.68.15.92,0,.44-.79.21c-1.5,2.85-2.27,4.27-3.86,7.07l10.66,6c2-3.6,3-5.42,4.92-9.09a8.32,8.32,0,0,0,2,.39c.22-.12.44-.13,0,1.28l3.28,1.71c.89-1.21,1-1,1-.77s0,.46-.87.21a236.82,236.82,0,0,1-12.47,21.69c.65.63.49.76.28.86a16.36,16.36,0,0,0-1.42,1.13l-4.63-3a.58.58,0,0,1-.29-.53,1,1,0,0,1,.15-.57c1.94-3,2.89-4.57,4.73-7.65l-10.51-6.29c-1.12,1.87-1.68,2.79-2.84,4.64,0,0,.45.69.24.78a.73.73,0,0,1-.64-.05l-3.13-2a.76.76,0,0,1-.33-.56c0-.22,0-.4-1.33-1.45C1187.26,628.37,1189.18,625,1192.76,618.22Z" transform="translate(-642.87 -192.22)" style="fill:#fff"/><path d="M1215.14,581.3c-2.07,6.22-3.2,9.3-5.66,15.4a.9.9,0,0,1-.38.4.64.64,0,0,1-.62,0l-4.21-1.72a.7.7,0,0,1-.46-.49,1,1,0,0,1,0-.59,218.79,218.79,0,0,0,8.32-23.9.41.41,0,0,1,.42-.35.55.55,0,0,1,.46.18c3.56,3,5.32,4.53,8.8,7.66a1.62,1.62,0,0,1,.37.59,1.06,1.06,0,0,1,0,.76c-.76,2.4-1.15,3.59-2,6a.39.39,0,0,1-.41.33.52.52,0,0,1-.42-.19C1217.74,583.74,1216.88,582.92,1215.14,581.3Zm5.09,14.07a3.37,3.37,0,0,0-.43-.34c-.2-.13-.38-.24-.53-.32l-.23-.13L1215,593a.68.68,0,0,1-.35-.36.75.75,0,0,1,0-.64c.65-1.74,1-2.61,1.6-4.36a.69.69,0,0,1,.42-.47.72.72,0,0,1,.49,0l4.13,1.46a4.56,4.56,0,0,1,1.2.77c2.51,2.71,3.74,4.09,6.18,6.9a1.14,1.14,0,0,1,.29,1.19c-.7,1.84-1.05,2.76-1.78,4.6a.66.66,0,0,1-.45.44.41.41,0,0,1-.43-.1C1223.87,599.55,1222.66,598.14,1220.23,595.37Z" transform="translate(-642.87 -192.22)" style="fill:#fff"/><path d="M1240.92,556.51a.94.94,0,0,1-.32.5.7.7,0,0,1-.64.17c-9-2-13.42-2.93-22.38-4.87a.72.72,0,0,1-.51-.4.83.83,0,0,1-.1-.53c1.62-7.59,2.29-11.41,3.34-19.09a.82.82,0,0,1,.28-.47.72.72,0,0,1,.62-.19l22.7,3.06a.67.67,0,0,1,.53.37,1,1,0,0,1,.14.58C1243.43,544,1242.7,548.22,1240.92,556.51Zm-3.22-16.2-12.1-1.91c-.76,4.83-1.2,7.24-2.18,12l12,2.47C1236.45,547.89,1236.91,545.37,1237.7,540.31Z" transform="translate(-642.87 -192.22)" style="fill:#fff"/><path d="M1241.1,495.69c0-5.4-.09-8.11-.38-13.51a9.2,9.2,0,0,0,1.94-.65c.12-.2.31-.3.64,1.22l3.69-.18c.17-1.57.36-1.48.51-1.3s.21.37-.66.59c.41,7.79.48,11.69.36,19.47.88.19.81.39.66.6a1.06,1.06,0,0,1-.57.29l-18.48-.36c0,1.37,0,2.06-.09,3.44.81.19.74.36.6.54s-.33.25-.54-.92l-3.7-.12c-.29,1.15-.48,1.05-.6.87a9.54,9.54,0,0,0-1.88-.57c0-1.34.06-2,.08-3.36l-1.4,0a.89.89,0,0,1-.54-.19,2.48,2.48,0,0,0-1.1-.57c0-1.65,0-2.48,0-4.14a2.4,2.4,0,0,0,1.11-.55,5.08,5.08,0,0,0,.54-.5h1.41c0-2.13,0-3.19-.08-5.31l3.62-.94a1.53,1.53,0,0,0,.49-.42c.16-.2-1.1-.61-1.1-.61-.09-3-.16-4.43-.34-7.38,3.47,1.3,5.2,2,8.65,3.36a1.44,1.44,0,0,1,.5.38,1,1,0,0,1,.27.63c.08,1.89.11,2.83.16,4.72,0,0,1.6.36,1.41.42a.5.5,0,0,1-.47,0c-2.85-1.09-4.27-1.62-7.13-2.66.1,3.13.13,4.7.14,7.82Zm-15.56-10.41c0,1.09.07,1.63.11,2.72.79.21.72.43.55.63a1.29,1.29,0,0,1-.49.41c-1.55.73-2.32,1.09-3.88,1.8a.53.53,0,0,1-.47,0,5.74,5.74,0,0,0-1.77-.37c0-1.06,0-1.6-.08-2.66,1.47-.28,1.55-.49,1.72-.69a1.42,1.42,0,0,1,.47-.41l3.86-1.86a.5.5,0,0,1,.46-.06C1226.22,484.89,1226.32,485,1225.54,485.28Zm-.28-5.21c.07,1.08.1,1.63.16,2.71.8.2.73.42.57.62a1.43,1.43,0,0,1-.48.43l-3.85,1.87a.54.54,0,0,1-.46.05,6,6,0,0,0-1.78-.34c-.05-1.06-.08-1.59-.14-2.65,1.47-.31,1.54-.53,1.7-.73a1.73,1.73,0,0,1,.47-.42c1.53-.77,2.3-1.15,3.82-1.93a.51.51,0,0,1,.46-.07C1225.93,479.66,1226,479.79,1225.26,480.07Z" transform="translate(-642.87 -192.22)" style="fill:#fff"/><path d="M1237.49,452.06a230.12,230.12,0,0,0-4.82-23.34c1.67-.6,1.69-.8,1.78-1s.23-.39.7.48l3.59-.9c0-1,.2-.94.39-.77s.3.35-.52.75a236.72,236.72,0,0,1,4.93,23.84c.9,0,.87.23.77.45s-.27.33-.32,1.63l-3.66.57c-.44-1.21-.65-1.27-.81-1.44S1239.27,452,1237.49,452.06Zm-21.88-15.76c1.61-.56,1.64-.75,1.73-1s.24-.37.64.28l3.6-.85c.06-.77.27-.72.45-.56s.29.33-.46.68c1.51,6.34,2.17,9.53,3.29,15.93.83,0,.8.21.7.41s-.27.32-.3,1.71l-3.64.61c-.47-1.29-.68-1.34-.84-1.49s-.25-.32-2-.19C1217.73,445.61,1217.09,442.5,1215.61,436.3Z" transform="translate(-642.87 -192.22)" style="fill:#fff"/><path d="M1230.15,399.61c.66,1.83,1,2.74,1.61,4.57a.44.44,0,0,1,0,.41.4.4,0,0,1-.28.2.74.74,0,0,1-.33,0c-8-1.64-12-2.33-20-3.45,1.34,3.49,2,5.24,3.19,8.77a.9.9,0,0,1,0,.56.64.64,0,0,1-.45.44l-4.32,1.47a.7.7,0,0,1-.65-.07.88.88,0,0,1-.36-.45c-2.29-6.64-3.55-9.94-6.29-16.46a.38.38,0,0,1,0-.4.49.49,0,0,1,.3-.21.93.93,0,0,1,.36,0c5.14.52,7.72.83,12.89,1.57,3.32-4.08,5-6.17,8.13-10.43a.7.7,0,0,1,.26-.22.44.44,0,0,1,.34-.05.49.49,0,0,1,.31.32c.75,1.79,1.12,2.68,1.84,4.48a1.42,1.42,0,0,1,0,.85,1.83,1.83,0,0,1-.31.7c-1.69,2.14-2.55,3.2-4.29,5.3,2.7.43,4.06.67,6.76,1.16a2.05,2.05,0,0,1,.7.33A1.3,1.3,0,0,1,1230.15,399.61Z" transform="translate(-642.87 -192.22)" style="fill:#fff"/></svg>